<?xml version="1.0" standalone="no"?>
<!DOCTYPE svg PUBLIC "-//W3C//DTD SVG 20010904//EN" "http://www.w3.org/TR/2001/REC-SVG-20010904/DTD/svg10.dtd">
<svg version="1.0" xmlns="http://www.w3.org/2000/svg" width="300.000000pt" height="433.000000pt" viewBox="0 0 300.000000 433.000000" preserveAspectRatio="xMidYMid meet">
  <g transform="translate(0.000000,433.000000) scale(0.100000,-0.100000)" fill="hsl(45.23, 87.84%, 70.98%)" stroke="hsl(174.38, 100%,   18.82%)">
    <path d="M2225 4280 c-22 -5 -75 -22 -118 -39 -43 -17 -82 -31 -89 -31 -6 0 -88 -39 -182 -87 -342 -173 -455 -224 -529 -237 -24 -5 -43 -16 -53 -32 -16 -23 -15 -26 1 -44 22 -25 27 -25 106 0 87 28 68 20 394 178 160 78 333 156 385 173 159 54 313 50 401 -9 264 -176 368 -573 293 -1122 -2 -19 -25 -114 -50 -210 -129 -499 -434 -1034 -789 -1384 -124 -122 -122 -121 -176 -97 -144 63 -582 107 -804 82 -374 -43 -341 -277 54 -377 144 -37 235 -40 367 -15 169 32 268 72 401 163 23 15 48 28 56 28 23 0 121 -57 151 -89 59 -61 44 -160 -36 -247 -56 -61 -89 -77 -125 -63 -46 18 -178 36 -276 38 -119 2 -350 -23 -452 -49 -87 -22 -182 -66 -198 -91 -16 -25 0 -67 33 -84 166 -86 657 -52 896 61 18 9 41 14 51 12 22 -4 63 -64 63 -92 0 -64 -100 -200 -188 -257 l-43 -27 -67 34 c-118 59 -204 76 -393 78 -180 1 -214 -7 -225 -51 -13 -49 49 -90 211 -143 83 -27 121 -33 223 -38 68 -2 120 -8 115 -13 -4 -4 -35 -15 -68 -23 -274 -68 -275 -69 -275 -100 0 -43 40 -47 160 -15 188 49 270 87 322 149 19 22 62 58 94 79 130 86 271 261 294 368 9 37 7 52 -10 90 -23 51 -36 54 -19 4 6 -18 9 -52 6 -76 -5 -49 -62 -176 -96 -215 -18 -21 -16 -14 9 40 21 46 30 80 30 118 0 58 -10 83 -46 123 l-24 25 52 50 c29 27 55 48 59 47 15 -5 72 62 93 107 15 33 21 66 21 120 0 85 -19 128 -77 169 l-33 24 33 -35 c80 -84 77 -237 -5 -345 -33 -44 -38 -37 -13 18 23 53 27 163 6 212 -15 38 -90 107 -141 131 -19 10 -35 18 -35 20 0 1 54 58 120 125 205 209 397 486 546 788 158 322 224 509 273 773 32 178 40 262 37 435 -6 329 -87 568 -249 735 -113 115 -192 151 -337 149 -52 -1 -113 -5 -135 -9z m305 -63 c30 -15 78 -48 105 -73 57 -51 47 -49 -43 13 -108 74 -232 93 -372 58 -36 -9 -76 -18 -90 -21 -14 -3 -29 -9 -34 -15 -6 -5 -17 -9 -25 -9 -35 0 123 64 179 73 14 2 70 3 125 2 86 -1 108 -5 155 -28z m-555 -87 c-44 -22 -93 -45 -110 -52 -16 -6 -34 -14 -40 -16 -7 -3 -7 -1 0 6 18 19 189 101 210 101 11 0 -16 -18 -60 -39z m-252 -125 c-29 -21 -76 -38 -68 -25 3 6 12 10 19 10 8 0 19 7 26 15 7 8 20 15 28 15 13 0 12 -3 -5 -15z m-173 -80 c0 -7 -128 -65 -143 -65 -14 0 113 67 131 69 6 0 12 -1 12 -4z m1287 -1107 c-3 -18 -10 -44 -16 -58 -13 -28 -13 -34 6 61 8 40 16 37 10 -3z m-413 -930 c-30 -51 -97 -142 -79 -108 14 26 78 120 82 120 2 0 1 -6 -3 -12z m-101 -150 c-6 -7 -36 -47 -67 -88 -72 -94 -203 -239 -262 -291 -48 -41 -58 -66 -40 -94 19 -29 21 -41 4 -27 -26 20 -77 24 -109 8 -39 -19 -42 -20 -36 -3 2 6 0 22 -4 35 -8 21 -7 22 31 16 42 -7 68 7 144 76 98 90 326 349 326 371 0 5 5 9 11 9 8 0 8 -4 2 -12z m-889 -403 c65 -8 170 -24 233 -36 91 -18 113 -26 111 -38 -5 -26 -203 -119 -313 -147 -87 -22 -114 -25 -205 -20 -209 10 -438 101 -428 170 4 29 77 63 158 74 100 14 312 13 444 -3z m665 -417 c-6 -12 -34 -50 -61 -82 -31 -37 -48 -67 -46 -80 3 -27 -6 -31 -41 -17 -22 10 -36 9 -72 -4 -24 -9 -55 -19 -68 -22 -24 -6 -24 -5 -8 18 15 21 15 25 2 46 -18 28 -12 29 62 12 51 -11 71 -7 124 29 32 21 93 90 103 116 3 10 9 16 12 13 3 -3 0 -16 -7 -29z m-311 -152 c21 -13 3 -24 -74 -46 -133 -38 -242 -52 -409 -52 -259 2 -343 24 -208 56 100 23 177 36 278 46 110 10 395 8 413 -4z m-353 -402 c132 -19 230 -47 230 -64 0 -22 -159 -25 -260 -5 -87 18 -235 72 -235 87 0 11 138 1 265 -18z m346 -57 l35 1 -52 -53 c-44 -46 -99 -85 -119 -85 -4 0 -4 9 0 19 4 13 -2 25 -21 40 -25 19 -25 21 -6 21 12 0 34 11 49 24 25 22 27 27 15 46 -12 20 -12 20 25 3 21 -9 54 -17 74 -16z"/>
    <path d="M937 1313 c-4 -3 -7 -20 -7 -36 0 -24 -3 -28 -17 -22 -60 23 -71 8 -15 -22 108 -61 391 -120 509 -108 116 12 113 20 -10 21 -142 2 -241 24 -353 79 -51 25 -76 43 -86 65 -8 17 -18 27 -21 23z"/>
    <path d="M1550 738 c-41 -5 -127 -7 -191 -6 -88 2 -115 0 -112 -9 3 -7 -7 -15 -24 -18 -15 -4 -32 -8 -38 -10 -5 -2 43 -4 108 -4 146 -1 293 15 355 40 l47 18 -35 -1 c-19 0 -69 -5 -110 -10z"/>
    <path d="M1355 331 c11 -5 40 -11 65 -15 30 -4 36 -3 20 3 -37 12 -109 22 -85 12z"/>
    <path d="M2245 4141 c-101 -29 -190 -69 -445 -196 -285 -142 -358 -169 -436 -163 -30 3 -54 3 -54 2 0 -10 64 -34 90 -34 57 0 177 49 418 169 414 208 547 247 701 207 63 -16 55 -4 -12 18 -62 21 -185 20 -262 -3z"/>
    <path d="M495 4011 c-84 -26 -104 -35 -157 -73 -127 -91 -225 -254 -273 -451 -97 -395 -20 -925 199 -1387 81 -171 179 -352 242 -447 85 -130 72 -125 195 -85 79 25 77 40 -22 192 -81 125 -204 364 -254 495 -144 374 -181 573 -172 907 l6 197 45 130 c49 143 84 198 182 292 73 69 87 76 172 93 62 13 64 14 27 16 -108 6 -153 -14 -251 -116 -91 -95 -149 -198 -179 -319 -21 -83 -23 -108 -31 -285 -10 -218 18 -437 85 -650 33 -108 75 -224 93 -259 7 -13 13 -29 13 -35 1 -15 22 -67 35 -86 6 -8 14 -24 19 -35 51 -113 120 -241 185 -340 44 -66 79 -126 80 -134 1 -8 -22 -26 -51 -41 -28 -15 -49 -21 -47 -15 3 6 -32 69 -77 141 -218 347 -374 737 -431 1074 -22 133 -30 406 -16 546 8 76 45 203 84 293 46 103 175 242 257 276 41 17 172 23 227 10 52 -11 86 -30 187 -106 50 -38 127 -91 170 -117 82 -52 226 -112 266 -112 13 0 28 -5 35 -12 9 -9 12 -9 12 0 0 6 6 9 14 6 26 -10 194 16 276 42 147 46 199 88 155 124 -13 11 -30 6 -108 -28 -115 -50 -190 -65 -303 -60 -119 6 -222 47 -368 146 -61 42 -150 101 -197 133 -135 92 -218 113 -324 80z m187 -47 c11 -6 -16 -9 -80 -10 -54 -1 -115 -7 -137 -14 -22 -7 -40 -11 -40 -9 0 12 -120 -102 -183 -175 -24 -28 -40 -41 -36 -30 4 10 10 21 14 24 3 3 16 21 27 40 43 70 144 145 236 175 45 15 172 14 199 -1z"/>
    <path d="M2202 3680 c-27 -26 -30 -80 -4 -102 31 -27 102 -58 132 -58 33 0 60 31 60 67 0 30 -5 29 -40 -7 -16 -16 -40 -31 -54 -34 -32 -6 -33 1 -1 30 48 44 20 124 -43 124 -16 0 -38 -9 -50 -20z m72 -44 c9 -13 7 -20 -8 -31 -32 -24 -62 15 -34 43 15 15 28 11 42 -12z"/>
    <path d="M1826 3666 c5 -22 -1 -26 -63 -50 -99 -38 -194 -55 -303 -57 -116 -1 -85 -17 37 -18 92 -1 154 9 263 45 91 29 140 58 140 81 0 14 -9 19 -40 20 -38 2 -40 1 -34 -21z"/>
    <path d="M2979 3168 c0 -2 -3 -16 -5 -33 -16 -107 -58 -321 -75 -382 -58 -209 -262 -650 -391 -842 -169 -252 -229 -329 -382 -490 -47 -49 -58 -65 -34 -47 93 69 300 324 463 571 99 150 298 583 350 760 35 120 94 465 80 465 -3 0 -5 -1 -6 -2z"/>
    <path d="M2013 2976 c-29 -14 -78 -42 -110 -64 -32 -21 -73 -44 -91 -50 -31 -11 -35 -9 -62 20 -18 19 -34 29 -44 25 -25 -10 -19 -46 13 -78 52 -51 108 -40 232 48 26 18 67 42 92 53 43 19 49 19 76 6 61 -32 101 -145 101 -288 0 -123 -15 -185 -48 -202 -15 -7 -81 -23 -147 -36 -383 -71 -697 -264 -812 -498 -35 -69 -38 -83 -38 -156 1 -173 90 -244 294 -234 97 5 211 39 253 75 9 8 21 12 26 9 26 -16 214 138 305 249 83 102 190 306 222 425 10 36 22 73 27 82 7 14 5 16 -7 11 -20 -7 -58 -92 -79 -173 -15 -58 -76 -176 -139 -270 -52 -77 -120 -154 -198 -224 -121 -111 -134 -103 -19 12 63 64 130 143 165 196 69 107 154 283 184 383 12 42 29 76 39 82 9 4 70 14 135 21 65 8 120 18 124 23 3 5 -3 16 -12 25 -10 10 -15 12 -11 5 4 -7 -2 -17 -13 -22 -26 -15 -28 -14 -34 10 -6 20 -10 21 -70 15 -54 -5 -68 -3 -87 12 -23 18 -23 20 -12 108 16 124 3 228 -40 314 -55 108 -115 132 -215 86z m243 -538 c8 -13 -51 -68 -73 -68 -23 0 -14 28 18 54 34 29 44 32 55 14z m-103 -90 c14 -22 -13 -103 -74 -224 -76 -150 -155 -262 -253 -359 -135 -134 -250 -194 -372 -195 -169 -1 -254 85 -225 227 33 166 220 346 474 455 79 35 143 53 362 106 53 13 76 10 88 -10z"/>
    <path d="M1762 2260 c-50 -22 -125 -59 -164 -83 -151 -88 -308 -285 -293 -367 4 -19 8 -46 9 -60 4 -33 27 -82 46 -97 25 -20 32 -14 11 9 -50 53 -52 147 -5 240 79 158 215 266 484 386 14 6 21 11 15 11 -5 0 -52 -17 -103 -39z"/>
    <path d="M2005 2869 c-44 -27 -92 -53 -108 -56 -36 -7 -45 -23 -14 -23 35 0 82 22 167 80 100 67 61 67 -45 -1z"/>
    <path d="M2305 2856 c19 -62 26 -173 15 -258 -6 -55 -7 -95 -2 -100 12 -12 19 16 27 112 7 84 -8 199 -31 239 -8 14 -13 17 -9 7z"/>
    <path d="M1105 1460 c-28 -5 -3 -8 80 -9 66 -1 185 -8 265 -16 167 -17 331 -19 267 -4 -138 32 -498 49 -612 29z"/>
    <path d="M2027 1310 c-16 -20 -16 -20 33 -20 28 0 50 2 50 5 0 4 -55 35 -62 35 -2 0 -11 -9 -21 -20z"/>
    <path d="M1510 914 c-131 -15 -207 -30 -288 -56 -52 -16 -92 -31 -90 -33 1 -1 44 8 95 21 51 12 141 28 200 34 59 6 142 15 183 20 107 12 218 4 289 -20 39 -13 67 -17 77 -12 12 6 0 13 -43 27 -43 13 -100 18 -223 20 -91 2 -181 1 -200 -1z"/>
    <path d="M2068 795 c-26 -34 -22 -39 12 -14 16 12 27 26 24 31 -8 13 -18 9 -36 -17z"/>
    <path d="M1300 520 c-36 -3 -77 -14 -92 -24 -16 -10 -28 -19 -28 -20 0 0 89 -2 198 -2 221 -2 373 -21 428 -53 39 -23 44 -25 44 -13 0 13 -88 58 -150 77 -57 17 -265 46 -310 44 -14 -1 -54 -5 -90 -9z"/>
    <path d="M1375 164 l-30 -26 30 7 c17 3 39 15 50 26 19 19 19 19 0 19 -11 -1 -33 -12 -50 -26z"/>
  </g>
</svg>
